<svg width="19" height="25" viewBox="0 0 19 25" fill="none" xmlns="http://www.w3.org/2000/svg">
<path d="M5.0113 5.07458C5.0113 4.69958 5.33943 4.32458 5.7613 4.32458H8.0113C8.3863 4.32458 8.7613 4.69958 8.7613 5.07458V7.32458C8.7613 7.74646 8.3863 8.07458 8.0113 8.07458H5.7613C5.33943 8.07458 5.0113 7.74646 5.0113 7.32458V5.07458ZM14.0113 4.32458C14.3863 4.32458 14.7613 4.69958 14.7613 5.07458V7.32458C14.7613 7.74646 14.3863 8.07458 14.0113 8.07458H11.7613C11.3394 8.07458 11.0113 7.74646 11.0113 7.32458V5.07458C11.0113 4.69958 11.3394 4.32458 11.7613 4.32458H14.0113ZM5.0113 11.0746C5.0113 10.6996 5.33943 10.3246 5.7613 10.3246H8.0113C8.3863 10.3246 8.7613 10.6996 8.7613 11.0746V13.3246C8.7613 13.7465 8.3863 14.0746 8.0113 14.0746H5.7613C5.33943 14.0746 5.0113 13.7465 5.0113 13.3246V11.0746ZM14.0113 10.3246C14.3863 10.3246 14.7613 10.6996 14.7613 11.0746V13.3246C14.7613 13.7465 14.3863 14.0746 14.0113 14.0746H11.7613C11.3394 14.0746 11.0113 13.7465 11.0113 13.3246V11.0746C11.0113 10.6996 11.3394 10.3246 11.7613 10.3246H14.0113ZM0.8863 3.19958C0.8863 1.55896 2.1988 0.199585 3.8863 0.199585H15.8863C17.5269 0.199585 18.8863 1.55896 18.8863 3.19958V21.1996C18.8863 22.8871 17.5269 24.1996 15.8863 24.1996H3.8863C2.1988 24.1996 0.8863 22.8871 0.8863 21.1996V3.19958ZM3.1363 3.19958V21.1996C3.1363 21.6215 3.46443 21.9496 3.8863 21.9496H7.6363V18.9496C7.6363 17.7308 8.62068 16.6996 9.8863 16.6996C11.1051 16.6996 12.1363 17.7308 12.1363 18.9496V21.9496H15.8863C16.2613 21.9496 16.6363 21.6215 16.6363 21.1996V3.19958C16.6363 2.82458 16.2613 2.44958 15.8863 2.44958H3.8863C3.46443 2.44958 3.1363 2.82458 3.1363 3.19958Z" fill="#F2CB3E"/>
</svg>
