<svg width="25" height="19" viewBox="0 0 25 19" fill="none" xmlns="http://www.w3.org/2000/svg">
<path d="M22.6358 0.199707C23.8546 0.199707 24.8858 1.23096 24.8858 2.44971V15.9497C24.8858 17.2153 23.8546 18.1997 22.6358 18.1997H3.13583C1.8702 18.1997 0.885826 17.2153 0.885826 15.9497V2.44971C0.885826 1.23096 1.8702 0.199707 3.13583 0.199707H22.6358ZM22.6358 2.44971H3.13583V4.37158C4.16708 5.26221 5.85458 6.57471 9.41708 9.38721C10.214 9.99658 11.7608 11.4966 12.8858 11.4497C13.964 11.4966 15.5108 9.99658 16.3077 9.38721C19.8702 6.57471 21.5577 5.26221 22.6358 4.37158V2.44971ZM3.13583 15.9497H22.6358V7.27783C21.5577 8.12158 20.0108 9.34033 17.714 11.1685C16.6358 11.9653 14.8546 13.7466 12.8858 13.6997C10.8702 13.7466 9.04208 11.9653 8.01083 11.1685C5.71395 9.34033 4.16708 8.12158 3.13583 7.27783V15.9497Z" fill="#F2CB3E"/>
</svg>
