<svg width="19" height="25" viewBox="0 0 19 25" fill="none" xmlns="http://www.w3.org/2000/svg">
<path d="M15.8884 21.575C14.9739 22.103 14.0881 22.3927 13.2357 22.1643C11.662 21.7427 8.04217 18.4009 5.90617 14.7012C3.77017 11.0015 2.69803 6.21655 3.12847 4.61011C3.34809 3.79049 4.0299 3.14743 4.94443 2.61943C5.69267 2.18743 6.59606 1.83214 7.51144 1.49763C7.64815 1.44641 7.81764 1.40398 7.96078 1.45991C8.1367 1.52461 8.28306 1.63411 8.37906 1.80038C8.39106 1.82117 8.39427 1.87474 8.41827 1.9163L10.1444 6.49001C10.2076 6.6475 10.2052 6.78743 10.1613 6.95135C10.1174 7.11527 10.0167 7.22884 9.85041 7.32484L9.70492 7.40884C8.97746 7.82884 8.03721 7.92829 6.56449 8.11346C6.43852 9.23927 6.97083 11.1213 8.25483 13.3452C9.53883 15.5692 10.9025 16.9711 11.9405 17.425C12.4879 16.6932 13.0658 16.1101 13.4599 15.6886C13.6317 15.5063 13.8923 15.1896 14.2248 14.9976C14.3911 14.9016 14.5726 14.8799 14.7573 14.9119C14.9092 14.935 15.0436 15.0237 15.1364 15.1364L18.2463 18.9389C18.2703 18.9805 18.3031 18.9893 18.3271 19.0308C18.4231 19.1971 18.4447 19.3786 18.4008 19.5425C18.3656 19.6737 18.2561 19.82 18.1434 19.9128C17.3961 20.5383 16.6367 21.143 15.8884 21.575Z" fill="#F2CB3E"/>
</svg>
